<mxfile host="Electron" agent="Mozilla/5.0 (Windows NT 10.0; Win64; x64) AppleWebKit/537.36 (KHTML, like Gecko) draw.io/25.0.2 Chrome/128.0.6613.186 Electron/32.2.5 Safari/537.36" version="25.0.2">
  <diagram name="Página-1" id="Llmrzu_D7U45Bb7-a-84">
    <mxGraphModel dx="1594" dy="945" grid="1" gridSize="10" guides="1" tooltips="1" connect="1" arrows="1" fold="1" page="1" pageScale="1" pageWidth="827" pageHeight="1169" math="0" shadow="0">
      <root>
        <mxCell id="0" />
        <mxCell id="1" parent="0" />
        <mxCell id="EzBDTlNwiN9GsEdRNq6S-12" value="INÍCIO" style="rounded=1;whiteSpace=wrap;html=1;" vertex="1" parent="1">
          <mxGeometry x="350" y="120" width="120" height="60" as="geometry" />
        </mxCell>
        <mxCell id="EzBDTlNwiN9GsEdRNq6S-21" value="" style="edgeStyle=orthogonalEdgeStyle;rounded=0;orthogonalLoop=1;jettySize=auto;html=1;" edge="1" parent="1" source="EzBDTlNwiN9GsEdRNq6S-17" target="EzBDTlNwiN9GsEdRNq6S-20">
          <mxGeometry relative="1" as="geometry" />
        </mxCell>
        <mxCell id="EzBDTlNwiN9GsEdRNq6S-17" value="N1, N2" style="shape=manualInput;whiteSpace=wrap;html=1;size=27;" vertex="1" parent="1">
          <mxGeometry x="370" y="260" width="80" height="60" as="geometry" />
        </mxCell>
        <mxCell id="EzBDTlNwiN9GsEdRNq6S-18" value="" style="edgeStyle=orthogonalEdgeStyle;rounded=0;orthogonalLoop=1;jettySize=auto;html=1;entryX=0.495;entryY=0.237;entryDx=0;entryDy=0;entryPerimeter=0;" edge="1" parent="1" source="EzBDTlNwiN9GsEdRNq6S-12" target="EzBDTlNwiN9GsEdRNq6S-17">
          <mxGeometry relative="1" as="geometry">
            <mxPoint x="410" y="260" as="targetPoint" />
          </mxGeometry>
        </mxCell>
        <mxCell id="EzBDTlNwiN9GsEdRNq6S-24" value="" style="edgeStyle=orthogonalEdgeStyle;rounded=0;orthogonalLoop=1;jettySize=auto;html=1;" edge="1" parent="1" source="EzBDTlNwiN9GsEdRNq6S-20" target="EzBDTlNwiN9GsEdRNq6S-23">
          <mxGeometry relative="1" as="geometry" />
        </mxCell>
        <mxCell id="EzBDTlNwiN9GsEdRNq6S-20" value="MEDIA = (N1+N2)/2" style="whiteSpace=wrap;html=1;" vertex="1" parent="1">
          <mxGeometry x="350" y="390" width="120" height="60" as="geometry" />
        </mxCell>
        <mxCell id="EzBDTlNwiN9GsEdRNq6S-26" value="" style="edgeStyle=orthogonalEdgeStyle;rounded=0;orthogonalLoop=1;jettySize=auto;html=1;" edge="1" parent="1" source="EzBDTlNwiN9GsEdRNq6S-23" target="EzBDTlNwiN9GsEdRNq6S-25">
          <mxGeometry relative="1" as="geometry" />
        </mxCell>
        <mxCell id="EzBDTlNwiN9GsEdRNq6S-30" value="" style="edgeStyle=orthogonalEdgeStyle;rounded=0;orthogonalLoop=1;jettySize=auto;html=1;" edge="1" parent="1" source="EzBDTlNwiN9GsEdRNq6S-23" target="EzBDTlNwiN9GsEdRNq6S-29">
          <mxGeometry relative="1" as="geometry" />
        </mxCell>
        <mxCell id="EzBDTlNwiN9GsEdRNq6S-23" value="MEDIA &amp;gt;= 0&lt;div&gt;E&lt;/div&gt;&lt;div&gt;MEDIA &amp;lt;=4&lt;/div&gt;" style="rhombus;whiteSpace=wrap;html=1;" vertex="1" parent="1">
          <mxGeometry x="350" y="500" width="120" height="120" as="geometry" />
        </mxCell>
        <mxCell id="EzBDTlNwiN9GsEdRNq6S-63" style="edgeStyle=orthogonalEdgeStyle;rounded=0;orthogonalLoop=1;jettySize=auto;html=1;exitX=0;exitY=0.75;exitDx=0;exitDy=0;entryX=0;entryY=0.5;entryDx=0;entryDy=0;" edge="1" parent="1" source="EzBDTlNwiN9GsEdRNq6S-25" target="EzBDTlNwiN9GsEdRNq6S-59">
          <mxGeometry relative="1" as="geometry" />
        </mxCell>
        <mxCell id="EzBDTlNwiN9GsEdRNq6S-25" value="&#39;&#39;REPROVADO&#39;&#39;" style="shape=document;whiteSpace=wrap;html=1;boundedLbl=1;" vertex="1" parent="1">
          <mxGeometry x="60" y="570" width="120" height="80" as="geometry" />
        </mxCell>
        <mxCell id="EzBDTlNwiN9GsEdRNq6S-32" value="" style="edgeStyle=orthogonalEdgeStyle;rounded=0;orthogonalLoop=1;jettySize=auto;html=1;" edge="1" parent="1" source="EzBDTlNwiN9GsEdRNq6S-29" target="EzBDTlNwiN9GsEdRNq6S-31">
          <mxGeometry relative="1" as="geometry" />
        </mxCell>
        <mxCell id="EzBDTlNwiN9GsEdRNq6S-34" value="" style="edgeStyle=orthogonalEdgeStyle;rounded=0;orthogonalLoop=1;jettySize=auto;html=1;" edge="1" parent="1" source="EzBDTlNwiN9GsEdRNq6S-29" target="EzBDTlNwiN9GsEdRNq6S-33">
          <mxGeometry relative="1" as="geometry" />
        </mxCell>
        <mxCell id="EzBDTlNwiN9GsEdRNq6S-29" value="MEDIA &amp;gt; 4&lt;div&gt;E&lt;/div&gt;&lt;div&gt;MEDIA &amp;lt;=6&lt;/div&gt;" style="rhombus;whiteSpace=wrap;html=1;" vertex="1" parent="1">
          <mxGeometry x="580" y="640" width="120" height="110" as="geometry" />
        </mxCell>
        <mxCell id="EzBDTlNwiN9GsEdRNq6S-65" style="edgeStyle=orthogonalEdgeStyle;rounded=0;orthogonalLoop=1;jettySize=auto;html=1;exitX=0;exitY=0.75;exitDx=0;exitDy=0;entryX=-0.009;entryY=0.148;entryDx=0;entryDy=0;entryPerimeter=0;" edge="1" parent="1" source="EzBDTlNwiN9GsEdRNq6S-31" target="EzBDTlNwiN9GsEdRNq6S-59">
          <mxGeometry relative="1" as="geometry">
            <mxPoint x="220.00000000000023" y="1090" as="targetPoint" />
            <Array as="points">
              <mxPoint x="240" y="760" />
              <mxPoint x="240" y="965" />
              <mxPoint x="270" y="965" />
              <mxPoint x="270" y="1160" />
            </Array>
          </mxGeometry>
        </mxCell>
        <mxCell id="EzBDTlNwiN9GsEdRNq6S-31" value="&quot;RECUPERAÇÃO&quot;" style="shape=document;whiteSpace=wrap;html=1;boundedLbl=1;" vertex="1" parent="1">
          <mxGeometry x="260" y="700" width="120" height="80" as="geometry" />
        </mxCell>
        <mxCell id="EzBDTlNwiN9GsEdRNq6S-36" value="" style="edgeStyle=orthogonalEdgeStyle;rounded=0;orthogonalLoop=1;jettySize=auto;html=1;" edge="1" parent="1" source="EzBDTlNwiN9GsEdRNq6S-33" target="EzBDTlNwiN9GsEdRNq6S-35">
          <mxGeometry relative="1" as="geometry" />
        </mxCell>
        <mxCell id="EzBDTlNwiN9GsEdRNq6S-38" value="" style="edgeStyle=orthogonalEdgeStyle;rounded=0;orthogonalLoop=1;jettySize=auto;html=1;" edge="1" parent="1" source="EzBDTlNwiN9GsEdRNq6S-33">
          <mxGeometry relative="1" as="geometry">
            <mxPoint x="810" y="900" as="targetPoint" />
          </mxGeometry>
        </mxCell>
        <mxCell id="EzBDTlNwiN9GsEdRNq6S-33" value="MEDIA &amp;gt; 6&lt;div&gt;E&lt;/div&gt;&lt;div&gt;MEDIA &amp;lt;= 10&lt;/div&gt;" style="rhombus;whiteSpace=wrap;html=1;" vertex="1" parent="1">
          <mxGeometry x="580" y="840" width="120" height="120" as="geometry" />
        </mxCell>
        <mxCell id="EzBDTlNwiN9GsEdRNq6S-62" style="edgeStyle=orthogonalEdgeStyle;rounded=0;orthogonalLoop=1;jettySize=auto;html=1;exitX=0;exitY=0.75;exitDx=0;exitDy=0;entryX=0.106;entryY=0.029;entryDx=0;entryDy=0;entryPerimeter=0;" edge="1" parent="1" source="EzBDTlNwiN9GsEdRNq6S-35" target="EzBDTlNwiN9GsEdRNq6S-59">
          <mxGeometry relative="1" as="geometry">
            <mxPoint x="420" y="1140" as="targetPoint" />
          </mxGeometry>
        </mxCell>
        <mxCell id="EzBDTlNwiN9GsEdRNq6S-35" value="&quot;APROVADO&quot;" style="shape=document;whiteSpace=wrap;html=1;boundedLbl=1;" vertex="1" parent="1">
          <mxGeometry x="330" y="920" width="120" height="80" as="geometry" />
        </mxCell>
        <mxCell id="EzBDTlNwiN9GsEdRNq6S-64" style="edgeStyle=orthogonalEdgeStyle;rounded=0;orthogonalLoop=1;jettySize=auto;html=1;exitX=1;exitY=0.5;exitDx=0;exitDy=0;entryX=1;entryY=0.5;entryDx=0;entryDy=0;" edge="1" parent="1" source="EzBDTlNwiN9GsEdRNq6S-39" target="EzBDTlNwiN9GsEdRNq6S-59">
          <mxGeometry relative="1" as="geometry">
            <Array as="points">
              <mxPoint x="950" y="905" />
              <mxPoint x="950" y="1185" />
            </Array>
          </mxGeometry>
        </mxCell>
        <mxCell id="EzBDTlNwiN9GsEdRNq6S-39" value="&quot;INFORMAÇÃO INVALIDA&quot;&lt;div&gt;(ERRO)&lt;/div&gt;" style="shape=document;whiteSpace=wrap;html=1;boundedLbl=1;" vertex="1" parent="1">
          <mxGeometry x="810" y="860" width="120" height="90" as="geometry" />
        </mxCell>
        <mxCell id="EzBDTlNwiN9GsEdRNq6S-59" value="FIM" style="rounded=1;whiteSpace=wrap;html=1;" vertex="1" parent="1">
          <mxGeometry x="400" y="1150" width="160" height="70" as="geometry" />
        </mxCell>
        <mxCell id="EzBDTlNwiN9GsEdRNq6S-66" value="NÃO" style="text;html=1;align=center;verticalAlign=middle;resizable=0;points=[];autosize=1;strokeColor=none;fillColor=none;" vertex="1" parent="1">
          <mxGeometry x="715" y="868" width="50" height="30" as="geometry" />
        </mxCell>
        <mxCell id="EzBDTlNwiN9GsEdRNq6S-67" value="SIM" style="text;html=1;align=center;verticalAlign=middle;resizable=0;points=[];autosize=1;strokeColor=none;fillColor=none;" vertex="1" parent="1">
          <mxGeometry x="530" y="878" width="40" height="30" as="geometry" />
        </mxCell>
        <mxCell id="EzBDTlNwiN9GsEdRNq6S-68" value="SIM" style="text;html=1;align=center;verticalAlign=middle;resizable=0;points=[];autosize=1;strokeColor=none;fillColor=none;" vertex="1" parent="1">
          <mxGeometry x="520" y="658" width="40" height="30" as="geometry" />
        </mxCell>
        <mxCell id="EzBDTlNwiN9GsEdRNq6S-69" value="SIM" style="text;html=1;align=center;verticalAlign=middle;resizable=0;points=[];autosize=1;strokeColor=none;fillColor=none;" vertex="1" parent="1">
          <mxGeometry x="290" y="528" width="40" height="30" as="geometry" />
        </mxCell>
        <mxCell id="EzBDTlNwiN9GsEdRNq6S-70" value="NÃO" style="text;html=1;align=center;verticalAlign=middle;resizable=0;points=[];autosize=1;strokeColor=none;fillColor=none;" vertex="1" parent="1">
          <mxGeometry x="505" y="528" width="50" height="30" as="geometry" />
        </mxCell>
        <mxCell id="EzBDTlNwiN9GsEdRNq6S-71" value="NÃO" style="text;html=1;align=center;verticalAlign=middle;resizable=0;points=[];autosize=1;strokeColor=none;fillColor=none;" vertex="1" parent="1">
          <mxGeometry x="640" y="768" width="50" height="30" as="geometry" />
        </mxCell>
      </root>
    </mxGraphModel>
  </diagram>
</mxfile>
